<?xml version="1.0" encoding="UTF-8"?>
<svg id="Layer_1" data-name="Layer 1" xmlns="http://www.w3.org/2000/svg" xmlns:xlink="http://www.w3.org/1999/xlink" viewBox="0 0 668.96 211.88">
  <defs>
    <style>
      .cls-1 {
        fill: url(#linear-gradient-2);
      }

      .cls-2 {
        fill: url(#linear-gradient-10);
      }

      .cls-3 {
        fill: url(#linear-gradient-4);
      }

      .cls-3, .cls-4 {
        clip-rule: evenodd;
      }

      .cls-5 {
        fill: url(#linear-gradient-3);
      }

      .cls-5, .cls-6 {
        fill-rule: evenodd;
      }

      .cls-7 {
        clip-path: url(#clippath-1);
      }

      .cls-8 {
        fill: url(#linear-gradient-5);
      }

      .cls-4 {
        fill: url(#linear-gradient-9);
      }

      .cls-9 {
        fill: url(#linear-gradient-7);
      }

      .cls-10 {
        fill: url(#linear-gradient-6);
      }

      .cls-6 {
        fill: url(#linear-gradient-8);
      }

      .cls-11 {
        fill: url(#linear-gradient);
      }

      .cls-12 {
        clip-path: url(#clippath);
      }
    </style>
    <linearGradient id="linear-gradient" x1="0" y1="105.94" x2="151.01" y2="105.94" gradientUnits="userSpaceOnUse">
      <stop offset="0" stop-color="#045304"/>
      <stop offset="1" stop-color="#b0f122"/>
    </linearGradient>
    <linearGradient id="linear-gradient-2" x1="179.27" y1="94.32" x2="285.19" y2="94.32" xlink:href="#linear-gradient"/>
    <linearGradient id="linear-gradient-3" x1="163.64" y1="125.45" x2="312.49" y2="125.45" xlink:href="#linear-gradient"/>
    <linearGradient id="linear-gradient-4" x1="163.64" y1="125.45" x2="312.49" y2="125.45" xlink:href="#linear-gradient"/>
    <clipPath id="clippath">
      <path class="cls-3" d="M250.06,211.88c-23.87,0-45.47-9.68-61.11-25.32-15.64-15.64-25.31-37.25-25.31-61.11s9.67-45.47,25.31-61.12c15.64-15.64,37.25-25.32,61.11-25.32,11.57,0,22.96,2.36,33.54,6.82,10.53,4.44,20.18,10.95,28.3,19.27-.51,52.13-60.33,104.57-96.78,63.21,4.49.73,9.07.97,13.65.74,4.51-.23,9.04-.95,13.52-2.15,14.11-3.78,26.07-11.99,34.51-22.88,6.66-8.6,11.17-18.88,12.85-29.98-4.44-3.42-9.28-6.24-14.4-8.4-7.83-3.3-16.38-5.05-25.19-5.05-17.91,0-34.12,7.26-45.85,18.99-11.73,11.73-18.99,27.94-18.99,45.85s7.26,34.12,18.99,45.85c11.73,11.73,27.94,18.99,45.85,18.99,13.47,0,26.21-4.13,36.75-11.38,10.57-7.27,19-17.69,23.8-30.25,10.66,39.8-26.24,63.23-60.56,63.23"/>
    </clipPath>
    <linearGradient id="linear-gradient-5" x1="163.64" y1="125.45" x2="321.28" y2="125.45" xlink:href="#linear-gradient"/>
    <linearGradient id="linear-gradient-6" x1="347.68" x2="498.69" xlink:href="#linear-gradient"/>
    <linearGradient id="linear-gradient-7" x1="526.94" y1="94.32" x2="632.87" y2="94.32" xlink:href="#linear-gradient"/>
    <linearGradient id="linear-gradient-8" x1="511.31" y1="125.45" x2="660.17" y2="125.45" xlink:href="#linear-gradient"/>
    <linearGradient id="linear-gradient-9" x1="511.31" y1="125.45" x2="660.17" y2="125.45" xlink:href="#linear-gradient"/>
    <clipPath id="clippath-1">
      <path class="cls-4" d="M597.74,211.88c-23.87,0-45.47-9.68-61.11-25.32-15.64-15.64-25.31-37.25-25.31-61.11s9.67-45.47,25.31-61.12c15.64-15.64,37.25-25.32,61.11-25.32,11.57,0,22.96,2.36,33.54,6.82,10.53,4.44,20.18,10.95,28.3,19.27-.51,52.13-60.33,104.57-96.78,63.21,4.49.73,9.07.97,13.65.74,4.51-.23,9.04-.95,13.52-2.15,14.11-3.78,26.07-11.99,34.51-22.88,6.66-8.6,11.17-18.88,12.85-29.98-4.44-3.42-9.28-6.24-14.4-8.4-7.83-3.3-16.38-5.05-25.19-5.05-17.91,0-34.12,7.26-45.85,18.99-11.73,11.73-18.99,27.94-18.99,45.85s7.26,34.12,18.99,45.85c11.73,11.73,27.94,18.99,45.85,18.99,13.47,0,26.21-4.13,36.75-11.38,10.57-7.27,19-17.69,23.8-30.25,10.66,39.8-26.24,63.23-60.56,63.23"/>
    </clipPath>
    <linearGradient id="linear-gradient-10" x1="511.31" y1="125.45" x2="668.96" y2="125.45" xlink:href="#linear-gradient"/>
  </defs>
  <path class="cls-11" d="M151.01,211.88h-36.11l-41.92-80.59c-.84.46-1.69.92-2.54,1.36-11.85,6.16-24.99,9.9-39.4,11.23v68H0V0h31.04v114.46c11.33-1.08,21.38-4.14,30.15-9.18,11.13-6.42,20.31-15.08,27.53-25.97,7.21-10.89,12.58-23.18,16.12-36.86,3.53-13.67,5.29-27.83,5.29-42.45h30.74c0,18.8-2.74,36.86-8.21,54.16-5.47,17.31-13.43,32.76-23.87,46.33-3.29,4.29-6.83,8.29-10.6,12.01l52.82,99.38Z"/>
  <g>
    <path class="cls-1" d="M249.89,96.73c-3.19,1.6-6.45,3.13-9.75,4.6,8.37.11,17.64,3.28,23.84,6.74-9.44-1.49-18.77-4.45-28.31-4.82-3.69,1.53-7.41,2.97-11.14,4.25,8.44.05,17.85,3.24,24.14,6.75-9.97-1.58-19.83-4.79-29.93-4.86-14.06,4.28-27.86,6.26-39.48,4.11,9.12.29,19.28-1.44,29.81-4.42,2.75-3.1,4.98-6.55,7.22-10.07,3.15-4.94,5.97-10.03,9.17-15-1.83,7.66-6.53,17.94-13.14,24.12,4.05-1.23,8.13-2.63,12.23-4.15,3.19-3.35,5.68-7.2,8.18-11.12,3.15-4.94,5.97-10.03,9.16-15-1.89,7.95-6.87,18.69-13.86,24.8,3.96-1.54,7.92-3.19,11.84-4.9,2.13-2.65,3.98-5.52,5.84-8.44,3.15-4.94,5.97-10.03,9.17-15-1.59,6.66-5.34,15.29-10.64,21.49,15.02-6.77,29.31-14.3,40.93-20.28-8.45,6.13-19.4,13.01-31.41,19.25,8.18.29,17.09,3.37,23.11,6.73-9.01-1.42-17.92-4.18-27-4.75Z"/>
    <g>
      <path class="cls-5" d="M250.06,211.88c-23.87,0-45.47-9.68-61.11-25.32-15.64-15.64-25.31-37.25-25.31-61.11s9.67-45.47,25.31-61.12c15.64-15.64,37.25-25.32,61.11-25.32,11.57,0,22.96,2.36,33.54,6.82,10.53,4.44,20.18,10.95,28.3,19.27-.51,52.13-60.33,104.57-96.78,63.21,4.49.73,9.07.97,13.65.74,4.51-.23,9.04-.95,13.52-2.15,14.11-3.78,26.07-11.99,34.51-22.88,6.66-8.6,11.17-18.88,12.85-29.98-4.44-3.42-9.28-6.24-14.4-8.4-7.83-3.3-16.38-5.05-25.19-5.05-17.91,0-34.12,7.26-45.85,18.99-11.73,11.73-18.99,27.94-18.99,45.85s7.26,34.12,18.99,45.85c11.73,11.73,27.94,18.99,45.85,18.99,13.47,0,26.21-4.13,36.75-11.38,10.57-7.27,19-17.69,23.8-30.25,10.66,39.8-26.24,63.23-60.56,63.23"/>
      <g class="cls-12">
        <rect class="cls-8" x="163.64" y="39.02" width="157.65" height="172.86"/>
      </g>
    </g>
  </g>
  <path class="cls-10" d="M498.69,211.88h-36.11l-41.92-80.59c-.84.46-1.69.92-2.54,1.36-11.85,6.16-24.99,9.9-39.4,11.23v68h-31.04V0h31.04v114.46c11.33-1.08,21.38-4.14,30.15-9.18,11.13-6.42,20.31-15.08,27.53-25.97,7.21-10.89,12.58-23.18,16.12-36.86,3.53-13.67,5.29-27.83,5.29-42.45h30.74c0,18.8-2.74,36.86-8.21,54.16-5.47,17.31-13.43,32.76-23.87,46.33-3.29,4.29-6.83,8.29-10.6,12.01l52.82,99.38Z"/>
  <g>
    <path class="cls-9" d="M597.57,96.73c-3.19,1.6-6.45,3.13-9.75,4.6,8.37.11,17.64,3.28,23.84,6.74-9.44-1.49-18.77-4.45-28.31-4.82-3.69,1.53-7.41,2.97-11.14,4.25,8.44.05,17.85,3.24,24.14,6.75-9.97-1.58-19.83-4.79-29.93-4.86-14.06,4.28-27.86,6.26-39.48,4.11,9.12.29,19.28-1.44,29.81-4.42,2.75-3.1,4.98-6.55,7.22-10.07,3.15-4.94,5.97-10.03,9.17-15-1.83,7.66-6.53,17.94-13.14,24.12,4.05-1.23,8.13-2.63,12.23-4.15,3.19-3.35,5.68-7.2,8.18-11.12,3.15-4.94,5.97-10.03,9.16-15-1.89,7.95-6.87,18.69-13.86,24.8,3.96-1.54,7.92-3.19,11.84-4.9,2.13-2.65,3.98-5.52,5.84-8.44,3.15-4.94,5.97-10.03,9.17-15-1.59,6.66-5.34,15.29-10.64,21.49,15.02-6.77,29.31-14.3,40.93-20.28-8.45,6.13-19.4,13.01-31.41,19.25,8.18.29,17.09,3.37,23.11,6.73-9.01-1.42-17.92-4.18-27-4.75Z"/>
    <g>
      <path class="cls-6" d="M597.74,211.88c-23.87,0-45.47-9.68-61.11-25.32-15.64-15.64-25.31-37.25-25.31-61.11s9.67-45.47,25.31-61.12c15.64-15.64,37.25-25.32,61.11-25.32,11.57,0,22.96,2.36,33.54,6.82,10.53,4.44,20.18,10.95,28.3,19.27-.51,52.13-60.33,104.57-96.78,63.21,4.49.73,9.07.97,13.65.74,4.51-.23,9.04-.95,13.52-2.15,14.11-3.78,26.07-11.99,34.51-22.88,6.66-8.6,11.17-18.88,12.85-29.98-4.44-3.42-9.28-6.24-14.4-8.4-7.83-3.3-16.38-5.05-25.19-5.05-17.91,0-34.12,7.26-45.85,18.99-11.73,11.73-18.99,27.94-18.99,45.85s7.26,34.12,18.99,45.85c11.73,11.73,27.94,18.99,45.85,18.99,13.47,0,26.21-4.13,36.75-11.38,10.57-7.27,19-17.69,23.8-30.25,10.66,39.8-26.24,63.23-60.56,63.23"/>
      <g class="cls-7">
        <rect class="cls-2" x="511.31" y="39.02" width="157.65" height="172.86"/>
      </g>
    </g>
  </g>
</svg>